<svg xmlns="http://www.w3.org/2000/svg" xmlns:xlink="http://www.w3.org/1999/xlink" width="316" height="252" viewBox="0 0 316 252">
  <defs>
    <clipPath id="clip-path">
      <rect id="bg-popup" width="294" height="169" transform="translate(410.5 669.061)"/>
    </clipPath>
    <clipPath id="clip-path-2">
      <rect id="사각형_2077" data-name="사각형 2077" width="10" height="10" fill="#04f0b5"/>
    </clipPath>
    <linearGradient id="linear-gradient" x1="0.511" x2="0.511" y2="1" gradientUnits="objectBoundingBox">
      <stop offset="0" stop-opacity="0"/>
      <stop offset="1" stop-color="#3f1c5d"/>
    </linearGradient>
  </defs>
  <text id="설문은_응답만_해도_정해진_보상을_받아갈_수_있습니다._받게_되는_킬포인트는_출제자에_의해_미리_정해집니다." data-name="설문은 응답만 해도 정해진 보상을 받아갈 수 있습니다.
받게 되는 킬포인트는 출제자에 의해 미리 정해집니다." transform="translate(158 231)" fill="#d5d5d5" font-size="12" font-family="NotoSansCJKkr-Regular, Noto Sans CJK KR" letter-spacing="-0.02em"><tspan x="-129.036" y="0">설문은 응답만 해도 정해진 보상을 받아갈 수 있습니다.</tspan><tspan x="-127.812" y="18">받게 되는 킬포인트는 출제자에 의해 미리 정해집니다.</tspan></text>
  <g id="slide-img3" transform="translate(-562 -651)">
    <rect id="사각형_2608" data-name="사각형 2608" width="316" height="194" transform="translate(562 651)" fill="#3f1c5d"/>
    <g id="contents-survey" transform="translate(162.5 -3.061)">
      <rect id="bg-popup-2" data-name="bg-popup" width="284" height="169" transform="translate(415.5 669.061)"/>
      <g id="마스크_그룹_24" data-name="마스크 그룹 24" clip-path="url(#clip-path)">
        <g id="그룹_3141" data-name="그룹 3141" transform="translate(0 1.424)">
          <g id="그룹_3136" data-name="그룹 3136" transform="translate(-351.887 -51.303)" opacity="0.996">
            <g id="사각형_2110" data-name="사각형 2110" transform="translate(793.387 830.939)" stroke="#05f1b6" stroke-width="1">
              <rect width="232" height="30" rx="3" stroke="none"/>
              <rect x="0.5" y="0.5" width="231" height="29" rx="2.5" fill="none"/>
            </g>
            <path id="사각형_2111" data-name="사각형 2111" d="M2,0H132a0,0,0,0,1,0,0V28a0,0,0,0,1,0,0H2a2,2,0,0,1-2-2V2A2,2,0,0,1,2,0Z" transform="translate(794.387 831.939)" fill="#00785a"/>
            <text id="발로란트" transform="translate(803.387 836.939)" fill="#fff" font-size="12" font-family="NotoSansCJKkr-Regular, Noto Sans CJK KR" letter-spacing="-0.02em"><tspan x="0" y="14">발로란트</tspan></text>
            <g id="그룹_3011" data-name="그룹 3011" transform="translate(995.41 839.577)">
              <text id="_57_" data-name="57%" transform="translate(-0.026 11.362)" fill="#fff" font-size="10" font-family="NotoSansCJKkr-Regular, Noto Sans CJK KR" letter-spacing="-0.02em"><tspan x="0" y="0">57%</tspan></text>
              <g id="ico-human" transform="translate(-11 2.864)">
                <rect id="사각형_1693" data-name="사각형 1693" width="10" height="9" transform="translate(-0.026 0.498)" fill="#fff" opacity="0"/>
                <circle id="타원_22" data-name="타원 22" cx="2" cy="2" r="2" transform="translate(2.974 0.498)" fill="#fff"/>
                <path id="사각형_1694" data-name="사각형 1694" d="M4,0H4A4,4,0,0,1,8,4V4A0,0,0,0,1,8,4H0A0,0,0,0,1,0,4V4A4,4,0,0,1,4,0Z" transform="translate(0.974 4.498)" fill="#fff"/>
              </g>
            </g>
          </g>
          <g id="그룹_3137" data-name="그룹 3137" transform="translate(-351.887 -2.303)" opacity="0.996">
            <g id="사각형_2109" data-name="사각형 2109" transform="translate(793.387 746.939)" stroke="#555" stroke-width="1">
              <rect width="232" height="30" rx="3" stroke="none"/>
              <rect x="0.5" y="0.5" width="231" height="29" rx="2.5" fill="none"/>
            </g>
            <path id="사각형_2425" data-name="사각형 2425" d="M2,0H30a0,0,0,0,1,0,0V28a0,0,0,0,1,0,0H2a2,2,0,0,1-2-2V2A2,2,0,0,1,2,0Z" transform="translate(794.386 747.939)" fill="#2a2a2a"/>
            <text id="리그_오브_레전드" data-name="리그 오브 레전드" transform="translate(803.387 752.939)" fill="#fff" font-size="12" font-family="NotoSansCJKkr-Regular, Noto Sans CJK KR" letter-spacing="-0.02em"><tspan x="0" y="14">리그 오브 레전드</tspan></text>
            <g id="그룹_3012" data-name="그룹 3012" transform="translate(995.412 755.577)">
              <text id="_13_" data-name="13%" transform="translate(-0.026 11.362)" fill="#fff" font-size="10" font-family="NotoSansCJKkr-Regular, Noto Sans CJK KR" letter-spacing="-0.02em"><tspan x="0" y="0">13%</tspan></text>
              <g id="ico-human-2" data-name="ico-human" transform="translate(-11 2.864)">
                <rect id="사각형_1693-2" data-name="사각형 1693" width="10" height="9" transform="translate(-0.026 0.498)" fill="#fff" opacity="0"/>
                <circle id="타원_22-2" data-name="타원 22" cx="2" cy="2" r="2" transform="translate(2.974 0.498)" fill="#fff"/>
                <path id="사각형_1694-2" data-name="사각형 1694" d="M4,0H4A4,4,0,0,1,8,4V4A0,0,0,0,1,8,4H0A0,0,0,0,1,0,4V4A4,4,0,0,1,4,0Z" transform="translate(0.974 4.498)" fill="#fff"/>
              </g>
            </g>
          </g>
          <g id="그룹_3138" data-name="그룹 3138" transform="translate(-351.887 -16.303)">
            <g id="사각형_2110-2" data-name="사각형 2110" transform="translate(793.387 830.939)" stroke="#545454" stroke-width="1">
              <rect width="232" height="30" rx="3" stroke="none"/>
              <rect x="0.5" y="0.5" width="231" height="29" rx="2.5" fill="none"/>
            </g>
            <path id="사각형_2426" data-name="사각형 2426" d="M2,0H27a0,0,0,0,1,0,0V28a0,0,0,0,1,0,0H2a2,2,0,0,1-2-2V2A2,2,0,0,1,2,0Z" transform="translate(794.385 831.939)" fill="#2a2a2a"/>
            <text id="이상형_월드컵" data-name="이상형 월드컵" transform="translate(803.387 836.939)" fill="#fff" font-size="12" font-family="NotoSansCJKkr-Regular, Noto Sans CJK KR" letter-spacing="-0.02em"><tspan x="0" y="14">이상형 월드컵</tspan></text>
            <g id="그룹_3013" data-name="그룹 3013" transform="translate(995.41 839.077)">
              <text id="_12_" data-name="12%" transform="translate(-0.026 11.362)" fill="#fff" font-size="10" font-family="NotoSansCJKkr-Regular, Noto Sans CJK KR" letter-spacing="-0.02em"><tspan x="0" y="0">12%</tspan></text>
              <g id="ico-human-3" data-name="ico-human" transform="translate(-11 2.864)">
                <rect id="사각형_1693-3" data-name="사각형 1693" width="10" height="9" transform="translate(-0.026 0.498)" fill="#fff" opacity="0"/>
                <circle id="타원_22-3" data-name="타원 22" cx="2" cy="2" r="2" transform="translate(2.974 0.498)" fill="#fff"/>
                <path id="사각형_1694-3" data-name="사각형 1694" d="M4,0H4A4,4,0,0,1,8,4V4A0,0,0,0,1,8,4H0A0,0,0,0,1,0,4V4A4,4,0,0,1,4,0Z" transform="translate(0.974 4.498)" fill="#fff"/>
              </g>
            </g>
          </g>
        </g>
      </g>
      <g id="그룹_2655" data-name="그룹 2655" transform="translate(445.005 710.279)">
        <text id="_설문_방장이_플레이했으면_하는_게임은_" data-name="[설문]  방장이 플레이했으면 하는 게임은?" transform="translate(113.495 15.781)" fill="#01fcb5" font-size="13" font-family="NotoSansCJKkr-Bold, Noto Sans CJK KR" font-weight="700" letter-spacing="-0.02em"><tspan x="-108.322" y="0">[설문]</tspan><tspan y="0" xml:space="preserve" fill="#fff">  방장이 플레이했으면 하는 게임은?</tspan></text>
      </g>
      <g id="그룹_3082" data-name="그룹 3082" transform="translate(10 4)">
        <text id="_0:30" data-name="0:30" transform="translate(436.5 675.061)" fill="#04f0b5" font-size="10" font-family="NotoSansCJKkr-Regular, Noto Sans CJK KR" letter-spacing="-0.02em"><tspan x="0" y="12">0:30</tspan></text>
        <g id="그룹_2694" data-name="그룹 2694" transform="translate(422.499 678.061)">
          <g id="그룹_2670" data-name="그룹 2670" transform="translate(0 0)" clip-path="url(#clip-path-2)">
            <path id="패스_1279" data-name="패스 1279" d="M5,0a5,5,0,1,0,5,5A5,5,0,0,0,5,0M7.839,5.323H5.587a.669.669,0,1,1-.908-.908V1.071h.645V4.414a.672.672,0,0,1,.264.264H7.84Z" transform="translate(0 0)" fill="#04f0b5"/>
          </g>
        </g>
      </g>
      <g id="그룹_3063" data-name="그룹 3063" transform="translate(27 4.957)">
        <text id="_4_381" data-name="4,381" transform="translate(631.5 674.104)" fill="#b5b5b5" font-size="10" font-family="NotoSansCJKkr-Regular, Noto Sans CJK KR" letter-spacing="-0.02em"><tspan x="0" y="12">4,381</tspan></text>
        <g id="ico-human-4" data-name="ico-human" transform="translate(137.916 30.604)">
          <circle id="타원_32" data-name="타원 32" cx="2.5" cy="2.5" r="2.5" transform="translate(482.085 646.5)" fill="#444"/>
          <path id="사각형_2121" data-name="사각형 2121" d="M4,0H6a4,4,0,0,1,4,4V4a0,0,0,0,1,0,0H0A0,0,0,0,1,0,4V4A4,4,0,0,1,4,0Z" transform="translate(479.585 652.5)" fill="#444"/>
        </g>
      </g>
      <g id="그룹_3101" data-name="그룹 3101" transform="translate(-90 57.956)">
        <text id="트리플킬" transform="translate(636.5 621.104)" fill="#b5b5b5" font-size="10" font-family="NotoSansCJKkr-Regular, Noto Sans CJK KR" letter-spacing="-0.02em"><tspan x="0" y="12">트리플킬</tspan></text>
        <g id="ico-gIft" transform="translate(-699.498 408.104)">
          <path id="Icon_awesome-gift" data-name="Icon awesome-gift" d="M.625,11.536a.673.673,0,0,0,.625.714H4.375V8.679H.625Zm5,.714H8.75a.673.673,0,0,0,.625-.714V8.679H5.625Zm3.75-7.143H8.553a2.171,2.171,0,0,0,.2-.893A1.857,1.857,0,0,0,7.031,2.25c-.812,0-1.338.475-2.012,1.525C4.346,2.725,3.82,2.25,3.008,2.25A1.857,1.857,0,0,0,1.289,4.214a2.14,2.14,0,0,0,.2.893H.625A.673.673,0,0,0,0,5.821V7.607a.338.338,0,0,0,.313.357H9.688A.338.338,0,0,0,10,7.607V5.821A.673.673,0,0,0,9.375,5.107Zm-6.369,0a.842.842,0,0,1-.781-.893.842.842,0,0,1,.781-.893c.389,0,.676.074,1.682,1.786H3.006Zm4.025,0H5.35c1-1.708,1.283-1.786,1.682-1.786a.842.842,0,0,1,.781.893A.842.842,0,0,1,7.031,5.107Z" transform="translate(1321.998 213.75)" fill="#444"/>
        </g>
      </g>
    </g>
    <rect id="사각형_2615" data-name="사각형 2615" width="316" height="90" transform="translate(562 746)" fill="url(#linear-gradient)"/>
  </g>
</svg>
